<svg id="Layer_1" data-name="Layer 1" xmlns="http://www.w3.org/2000/svg" viewBox="0 0 345 345"><defs><style>.cls-1{fill:#79e2f2;}.cls-2{fill:#00a3bf;}.cls-3{fill:#00c7e5;}.cls-4{fill:none;stroke:#0065ff;stroke-miterlimit:10;stroke-width:4.86px;}.cls-5{fill:#0052cc;}.cls-6{fill:#fff;}</style></defs><title>Project prioritization</title><path class="cls-1" d="M166.94,16.9A155.83,155.83,0,0,0,20,204.05h4.75C117.08,198.53,157.34,99.77,166.94,16.9Z"/><path class="cls-2" d="M299.22,82C260.63,182.93,169.84,268.29,67.38,287.39A155.71,155.71,0,0,0,299.22,82Z"/><path class="cls-3" d="M299.22,82A155.51,155.51,0,0,0,172.5,16.76c-1.86,0-3.71.08-5.56.14-9.6,82.87-49.86,181.63-142.23,187.15H20a155.48,155.48,0,0,0,47.42,83.34C169.84,268.29,260.63,182.93,299.22,82Z"/><line class="cls-4" x1="172.5" y1="2.5" x2="172.5" y2="342.5"/><circle class="cls-5" cx="219.04" cy="141.91" r="4.26"/><circle class="cls-5" cx="270.21" cy="199.75" r="4.26"/><circle class="cls-5" cx="190.11" cy="266.5" r="4.26"/><circle class="cls-5" cx="97.16" cy="230.9" r="4.26"/><circle class="cls-5" cx="235.1" cy="115.21" r="4.26"/><circle class="cls-5" cx="304.07" cy="199.75" r="4.26"/><circle class="cls-5" cx="277.38" cy="228.68" r="4.26"/><circle class="cls-5" cx="186.16" cy="186.41" r="4.26"/><circle class="cls-5" cx="74.91" cy="259.83" r="4.26"/><circle class="cls-5" cx="157.23" cy="159.71" r="4.26"/><circle class="cls-5" cx="152.78" cy="304.32" r="4.26"/><circle class="cls-5" cx="199.51" cy="52.91" r="4.26"/><circle class="cls-6" cx="118.76" cy="78.61" r="19.02"/><path class="cls-5" d="M115.17,90.1l-8.86-8.87a.8.8,0,0,1,0-1.13L110,76.43a.8.8,0,0,1,1.13,0l4.63,4.63,10.33-10.33a.8.8,0,0,1,1.13,0l3.67,3.67a.8.8,0,0,1,0,1.13L116.3,90.1A.8.8,0,0,1,115.17,90.1Z"/><circle class="cls-6" cx="70.95" cy="113.17" r="19.02"/><path class="cls-5" d="M67.37,124.66,58.5,115.8a.8.8,0,0,1,0-1.13L62.17,111a.8.8,0,0,1,1.13,0l4.63,4.63L78.26,105.3a.8.8,0,0,1,1.13,0L83.06,109a.8.8,0,0,1,0,1.13L68.5,124.66A.8.8,0,0,1,67.37,124.66Z"/><circle class="cls-6" cx="123.17" cy="136.95" r="19.02"/><path class="cls-5" d="M119.58,148.44l-8.86-8.87a.8.8,0,0,1,0-1.13l3.67-3.67a.8.8,0,0,1,1.13,0l4.63,4.63,10.33-10.33a.8.8,0,0,1,1.13,0l3.67,3.68a.79.79,0,0,1,0,1.12l-14.57,14.57A.8.8,0,0,1,119.58,148.44Z"/><line class="cls-4" x1="342.5" y1="172.5" x2="2.5" y2="172.5"/></svg>